<svg width="152" height="242" viewBox="0 0 152 242" fill="none" xmlns="http://www.w3.org/2000/svg">
<path d="M76 149.5L76 239.5" stroke="white" stroke-width="5" stroke-linecap="round"/>
<path d="M2.58128 79C1.1552 79 0 77.8451 0 76.4195C0 56.0065 7.94833 36.8173 22.3817 22.3829C36.8178 7.94858 56.0075 0 76.4187 0C77.8448 0 79 1.15485 79 2.5805C79 4.00615 77.8448 5.161 76.4187 5.161C37.1285 5.161 5.16257 37.1279 5.16257 76.4195C5.16257 77.8451 4.00736 79 2.58128 79Z" fill="white"/>
<path d="M149.419 79C150.845 79 152 77.8451 152 76.4195C152 56.0065 144.052 36.8173 129.618 22.3829C115.182 7.94858 95.9925 0 75.5813 0C74.1552 0 73 1.15485 73 2.5805C73 4.00615 74.1552 5.161 75.5813 5.161C114.871 5.161 146.837 37.1279 146.837 76.4195C146.837 77.8451 147.993 79 149.419 79Z" fill="white"/>
<path d="M76.546 152C75.1406 152 74 150.845 74 149.419C74 147.994 75.1406 146.839 76.546 146.839C115.341 146.839 146.903 114.872 146.903 75.5805C146.903 74.1549 148.043 73 149.451 73C150.859 73 152 74.1549 152 75.5805C152 95.9935 144.15 115.183 129.899 129.617C115.648 144.051 96.7015 152 76.546 152Z" fill="white"/>
</svg>
